<?xml version="1.0" standalone="no"?>
<!DOCTYPE svg PUBLIC "-//W3C//DTD SVG 20010904//EN"
 "http://www.w3.org/TR/2001/REC-SVG-20010904/DTD/svg10.dtd">
<svg version="1.0" xmlns="http://www.w3.org/2000/svg"
 width="494.000000pt" height="494.000000pt" viewBox="0 0 494.000000 494.000000"
 preserveAspectRatio="xMidYMid meet">
<metadata>
Created by potrace 1.11, written by Peter Selinger 2001-2013
</metadata>
<g transform="translate(0.000000,494.000000) scale(0.100000,-0.100000)"
fill="#000000" stroke="none">
<path d="M3371 3207 c-8 -21 -38 -108 -241 -697 -54 -157 -105 -303 -113 -325
l-15 -40 -12 30 c-11 28 -195 569 -207 608 -3 9 -9 17 -14 18 -5 0 -56 0 -114
0 -58 0 -137 0 -175 0 l-70 -1 -57 -87 c-161 -252 -342 -536 -363 -572 -9 -14
-25 -41 -37 -59 l-20 -33 -17 58 c-10 32 -26 85 -36 118 -10 33 -32 107 -50
165 -17 58 -36 119 -41 136 l-10 32 -171 -1 -171 0 -26 -27 c-36 -37 -231
-247 -250 -269 -18 -21 -214 -230 -314 -337 -74 -78 -60 -72 -232 -100 -27 -4
-103 -17 -175 -29 -350 -61 -435 -77 -439 -80 -2 -3 239 -5 537 -5 l540 0 45
53 c37 43 219 259 371 441 l32 39 96 -264 96 -264 190 -3 191 -2 28 42 c16 24
123 195 238 380 115 185 212 335 215 332 3 -3 66 -173 141 -377 l136 -372 154
-3 155 -2 119 352 c66 194 133 395 150 445 30 93 40 109 42 75 1 -10 6 -45 12
-78 6 -32 13 -81 16 -109 4 -27 8 -57 10 -65 5 -19 95 -596 95 -610 0 -7 228
-10 667 -10 399 0 663 4 658 9 -6 5 -28 19 -50 31 -22 13 -80 45 -130 73 -110
61 -184 102 -250 136 l-50 26 -273 -1 c-150 -1 -274 2 -276 5 -2 3 -18 83 -35
176 -17 94 -33 181 -36 195 -3 14 -10 52 -15 85 -6 33 -15 80 -19 105 -5 25
-14 72 -20 105 -6 33 -17 94 -25 135 -8 41 -17 91 -20 110 -3 19 -8 46 -11 60
-3 14 -14 77 -26 140 -11 63 -23 118 -25 121 -2 4 -69 7 -149 7 -141 1 -146 0
-154 -21z"/>
</g>
</svg>
